<svg version="1.1" xmlns="http://www.w3.org/2000/svg" xmlns:xlink="http://www.w3.org/1999/xlink" width="479.94479" height="360" viewBox="0,0,479.94479,360"><g transform="translate(-0.02761,0)"><g data-paper-data="{&quot;isPaintingLayer&quot;:true}" fill-rule="nonzero" stroke="none" stroke-linecap="butt" stroke-linejoin="miter" stroke-miterlimit="10" stroke-dasharray="" stroke-dashoffset="0" style="mix-blend-mode: normal"><path d="M0.02761,360v-360h479.94479v360z" fill="#2e3240" stroke-width="0"/><g stroke-width="1"><path d="M204.84659,132.40142l-0.8339,-34.77639c-0.0428,-1.91963 1.46832,-3.51769 3.39713,-3.56445l8.99806,-0.21689c0.92435,-0.0279 1.81391,0.31848 2.48077,0.95676l5.03889,4.79818c0.66686,0.63828 1.56561,0.9807 2.48077,0.95676l11.02535,-0.26251c0.92435,-0.0279 1.79291,-0.41286 2.43119,-1.07972l4.79818,-5.03889c0.63828,-0.66686 1.51603,-1.05577 2.43119,-1.07972l90.71301,-1.58066c1.91963,-0.0428 3.51769,1.46832 3.56445,3.39713l0.8339,34.77639c0.0428,1.91963 -1.46832,3.51769 -3.39713,3.56445l-90.71301,1.58066c-0.92435,0.0279 -1.79291,0.41286 -2.43119,1.07972l-4.79818,5.03889c-0.63828,0.66686 -1.51603,1.05577 -2.43119,1.07972l-11.02535,0.26251c-0.92435,0.0279 -1.81391,-0.31848 -2.48077,-0.95676l-5.03889,-4.79818c-0.66686,-0.63828 -1.56561,-0.9807 -2.48077,-0.95676l-8.98887,0.21294c-1.92881,0.04676 -3.53083,-1.47355 -3.57363,-3.39318z" fill="#383c4d"/><path d="M205.08695,137.61124l-0.8339,-34.77639c-0.0428,-1.91963 1.46832,-3.51769 3.39713,-3.56445l8.99806,-0.21689c0.92435,-0.0279 1.81391,0.31848 2.48077,0.95676l5.03889,4.79818c0.66686,0.63828 1.56561,0.9807 2.48077,0.95676l11.02535,-0.26251c0.92435,-0.0279 1.79291,-0.41286 2.43119,-1.07972l4.79818,-5.03889c0.63828,-0.66686 1.51603,-1.05577 2.43119,-1.07972l90.71301,-1.58066c1.91963,-0.0428 3.51769,1.46832 3.56445,3.39713l0.8339,34.77639c0.0428,1.91963 -1.46832,3.51769 -3.39713,3.56445l-90.69987,1.58589c-0.92435,0.0279 -1.79291,0.41286 -2.43119,1.07972l-4.79818,5.03889c-0.63828,0.66686 -1.51603,1.05577 -2.43119,1.07972l-11.02535,0.26251c-0.92435,0.0279 -1.81391,-0.31848 -2.48077,-0.95676l-5.03889,-4.79818c-0.66686,-0.63828 -1.56561,-0.9807 -2.48077,-0.95676l-8.98887,0.21294c-1.94195,0.04153 -3.54397,-1.47878 -3.58677,-3.39841z" fill="#43485d"/></g><g stroke-width="1"><path d="M64.79308,249.83466l-18.97983,-18.6656c-1.04589,-1.03204 -1.06665,-2.71499 -0.03166,-3.76795l4.82894,-4.91147c0.49306,-0.50763 1.16637,-0.79107 1.87275,-0.7955l5.32435,-0.04705c0.70638,-0.00443 1.38261,-0.29492 1.87275,-0.7955l5.91865,-6.01625c0.49306,-0.50763 0.76533,-1.18176 0.76089,-1.88815l-0.04705,-5.32435c-0.00443,-0.70638 0.27077,-1.38758 0.76089,-1.88814l49.00521,-49.18151c1.03204,-1.04589 2.71499,-1.06665 3.76795,-0.03166l18.97981,18.66559c1.04589,1.03204 1.06665,2.71499 0.03166,3.76795l-49.0052,49.1815c-0.49306,0.50763 -0.76533,1.18176 -0.76089,1.88814l0.04705,5.32435c0.00443,0.70638 -0.27077,1.38758 -0.76089,1.88814l-5.91865,6.01625c-0.49306,0.50763 -1.16637,0.79107 -1.87275,0.7955l-5.32435,0.04705c-0.70638,0.00443 -1.38261,0.29492 -1.87275,0.7955l-4.826,4.90441c-1.03498,1.05296 -2.725,1.07076 -3.77089,0.03872z" fill="#383c4d"/><path d="M67.69986,252.56946l-18.97983,-18.6656c-1.04589,-1.03204 -1.06665,-2.71499 -0.03166,-3.76795l4.82894,-4.91147c0.49306,-0.50763 1.16637,-0.79107 1.87275,-0.7955l5.32435,-0.04705c0.70638,-0.00443 1.38261,-0.29492 1.87275,-0.7955l5.91865,-6.01625c0.49306,-0.50763 0.76533,-1.18176 0.76089,-1.88815l-0.04705,-5.32435c-0.00443,-0.70638 0.27077,-1.38757 0.76089,-1.88814l49.0052,-49.18151c1.03204,-1.04589 2.71499,-1.06665 3.76795,-0.03166l18.97983,18.6656c1.04589,1.03204 1.06664,2.715 0.03166,3.76795l-48.99519,49.17737c-0.49306,0.50763 -0.76533,1.18176 -0.76089,1.88815l0.04705,5.32435c0.00443,0.70638 -0.27077,1.38758 -0.76089,1.88814l-5.91865,6.01625c-0.49306,0.50763 -1.16637,0.79107 -1.87275,0.7955l-5.32435,0.04705c-0.70638,0.00443 -1.38261,0.29492 -1.87275,0.7955l-4.826,4.90441c-1.04499,1.05709 -2.73501,1.07489 -3.7809,0.04285z" fill="#43485d"/></g><g stroke-width="1"><path d="M382.31566,247.54777l-9.7281,-18.97366c-0.5352,-1.04819 -0.12697,-2.333 0.92523,-2.87283l4.90895,-2.51767c0.50279,-0.26174 1.08611,-0.30761 1.62431,-0.13301l4.06007,1.30565c0.5382,0.1746 1.12554,0.1241 1.62431,-0.13301l6.01582,-3.08312c0.50279,-0.26174 0.87963,-0.7057 1.05423,-1.24389l1.30565,-4.06007c0.1746,-0.5382 0.55546,-0.98678 1.05423,-1.24389l49.65056,-25.04724c1.04819,-0.5352 2.333,-0.12697 2.87283,0.92524l9.7281,18.97366c0.5352,1.04819 0.12697,2.333 -0.92524,2.87283l-49.65056,25.04723c-0.50279,0.26174 -0.87963,0.7057 -1.05423,1.24389l-1.30565,4.06007c-0.1746,0.5382 -0.55545,0.98678 -1.05423,1.24389l-6.01582,3.08313c-0.50279,0.26174 -1.08611,0.30761 -1.62431,0.13301l-4.06007,-1.30565c-0.5382,-0.1746 -1.12554,-0.1241 -1.62431,0.13301l-4.90494,2.51305c-1.05221,0.53983 -2.34164,0.12758 -2.87684,-0.92061z" fill="#383c4d"/><path d="M383.83674,250.35943l-9.7281,-18.97366c-0.5352,-1.04819 -0.12697,-2.333 0.92523,-2.87283l4.90895,-2.51767c0.50279,-0.26174 1.08612,-0.30761 1.62431,-0.13301l4.06007,1.30565c0.5382,0.1746 1.12554,0.1241 1.62431,-0.13301l6.01582,-3.08313c0.50279,-0.26174 0.87963,-0.7057 1.05423,-1.24389l1.30565,-4.06007c0.1746,-0.5382 0.55545,-0.98678 1.05423,-1.24389l49.65057,-25.04724c1.04819,-0.5352 2.333,-0.12697 2.87283,0.92524l9.7281,18.97366c0.5352,1.04819 0.12697,2.33299 -0.92523,2.87283l-49.64192,25.04662c-0.50279,0.26174 -0.87963,0.7057 -1.05423,1.24389l-1.30565,4.06007c-0.1746,0.5382 -0.55545,0.98678 -1.05423,1.24389l-6.01582,3.08313c-0.50279,0.26174 -1.08612,0.30761 -1.62431,0.13301l-4.06007,-1.30565c-0.5382,-0.1746 -1.12554,-0.1241 -1.62431,0.13301l-4.90493,2.51305c-1.06085,0.54045 -2.35029,0.1282 -2.88549,-0.91999z" fill="#43485d"/></g><g stroke-width="1"><path d="M47.56429,111.9863l-10.14468,-37.13078c0,0 9.81451,-17.1962 36.8156,-24.57515c27.00109,-7.37896 44.19728,2.43556 44.19728,2.43556l45.99463,-12.57259c1.86238,-0.50681 3.78434,0.59089 4.30077,2.45054l9.22919,33.7524c0.50681,1.86238 -0.59089,3.78434 -2.45054,4.30077l-85.10325,23.25679c-0.89751,0.24386 -1.65569,0.83282 -2.11353,1.6381l-3.46549,6.07457c-0.45784,0.80528 -1.22564,1.39696 -2.11353,1.6381l-10.70698,2.92927c-0.89751,0.24386 -1.85739,0.12084 -2.66267,-0.33701l-6.0773,-3.47511c-0.80528,-0.45784 -1.76516,-0.58087 -2.66267,-0.33701l-8.72915,2.38975c-1.86655,0.52878 -3.78851,-0.56892 -4.30767,-2.43819z" fill="#383c4d"/><path d="M45.81363,105.54977l-10.14468,-37.13078c0,0 9.81451,-17.1962 36.8156,-24.57515c27.01071,-7.38168 44.19728,2.43556 44.19728,2.43556l45.99463,-12.57259c1.86238,-0.50681 3.78434,0.59089 4.30077,2.45054l9.22919,33.7524c0.50681,1.86238 -0.59089,3.78434 -2.45054,4.30077l-85.10325,23.25679c-0.89751,0.24386 -1.65569,0.83282 -2.11353,1.6381l-3.46549,6.07457c-0.45784,0.80528 -1.22564,1.39696 -2.11353,1.6381l-10.70698,2.92927c-0.89751,0.24386 -1.85739,0.12084 -2.66267,-0.33701l-6.0773,-3.47511c-0.80528,-0.45784 -1.76516,-0.58087 -2.66267,-0.33701l-8.72915,2.38975c-1.87617,0.5315 -3.79813,-0.5662 -4.30767,-2.43819z" fill="#43485d"/></g><g stroke-width="1"><path d="M272.78401,309.34526l9.30314,-20.53592c0,0 10.85311,-4.08644 25.78729,2.67787c14.93418,6.76431 19.02062,17.61741 19.02062,17.61741l25.44055,11.52121c1.02927,0.46753 1.48571,1.68089 1.02354,2.71253l-8.45329,18.67025c-0.46753,1.02927 -1.6809,1.48571 -2.71253,1.02354l-47.07003,-21.32029c-0.49588,-0.22548 -1.05791,-0.24327 -1.56536,-0.05124l-3.8332,1.4441c-0.50745,0.19202 -1.07483,0.17187 -1.56536,-0.05124l-5.92319,-2.68086c-0.49588,-0.22548 -0.88276,-0.63972 -1.07478,-1.14717l-1.44173,-3.83856c-0.19202,-0.50745 -0.5789,-0.92169 -1.07478,-1.14717l-4.82963,-2.18493c-1.03936,-0.45918 -1.4958,-1.67254 -1.03126,-2.70954z" fill="#383c4d"/><path d="M274.40025,305.78835l9.30314,-20.53592c0,0 10.85311,-4.08644 25.78729,2.67787c14.93954,6.76667 19.02062,17.61741 19.02062,17.61741l25.44055,11.52121c1.02927,0.46753 1.48571,1.68089 1.02354,2.71253l-8.45329,18.67025c-0.46753,1.02927 -1.68089,1.48571 -2.71253,1.02354l-47.07003,-21.32029c-0.49588,-0.22548 -1.05791,-0.24327 -1.56536,-0.05124l-3.8332,1.4441c-0.50745,0.19202 -1.07483,0.17187 -1.56536,-0.05124l-5.92319,-2.68086c-0.49588,-0.22548 -0.88276,-0.63972 -1.07478,-1.14717l-1.44173,-3.83856c-0.19202,-0.50745 -0.5789,-0.92169 -1.07478,-1.14717l-4.82963,-2.18492c-1.04472,-0.46155 -1.50116,-1.67491 -1.03126,-2.70954z" fill="#43485d"/></g><g fill="#43485d" stroke-width="1"><path d="M287.88,215.52001c-3.73,-0.86 -3.96,3.35 -4.07,8.58c-0.09,4.55 -9.29,0.24 -13.54,-10.81c-0.67,-1.74 -1.8,-2.26 -4.37,-2.85l-0.37,-4.4l23.29,5.39z"/><path d="M237.46,192.70001v0c1.53,-6.61 8.14,-10.73 14.75,-9.2l41.25,9.55c6.61,1.53 10.73,8.14 9.2,14.75v0c-1.53,6.61 -8.14,10.73 -14.75,9.2l-41.24,-9.54c-6.62,-1.54 -10.74,-8.14 -9.21,-14.76z"/></g><g fill="#43485d" stroke-width="1"><path d="M418.92026,91.92238c-5.22509,-2.4125 -6.85799,3.71271 -8.6279,11.37597c-1.5314,6.66864 -13.74604,-2.5031 -16.6034,-20.07228c-0.45107,-2.76679 -1.95423,-3.87951 -5.55514,-5.538l0.80829,-6.58931l32.61907,15.09331z"/><path d="M351.73254,42.83563v0c4.28404,-9.25763 15.27883,-13.28879 24.53646,-9.00475l57.77207,26.73765c9.25763,4.28404 13.28879,15.27883 9.00475,24.53646v0c-4.28404,9.25763 -15.27883,13.28879 -24.53646,9.00475l-57.76043,-26.71986c-9.26928,-4.30183 -13.30351,-15.2819 -9.01639,-24.55425z"/></g><g fill="#43485d" stroke-width="1"><path d="M184.22767,297.97524c-3.77379,1.57217 -1.3561,5.37111 1.79994,9.98121c2.75064,4.00715 -7.91819,5.98413 -18.4788,-0.96936c-1.66361,-1.09446 -2.96819,-0.84349 -5.56677,0.24196l-3.05685,-3.59091l23.57598,-9.79906z"/><path d="M126.25565,309.50525v0c-2.78088,-6.69132 0.39775,-14.37864 7.08907,-17.15952l41.75869,-17.35251c6.69132,-2.78088 14.37863,0.39775 17.15952,7.08907v0c2.78088,6.69132 -0.39775,14.37864 -7.08907,17.15952l-41.74379,17.35498c-6.70622,2.77841 -14.38732,-0.39154 -17.17442,-7.09154z"/></g></g></g></svg>